<?xml version="1.0" encoding="UTF-8"?>
<svg version="1.1" xmlns="http://www.w3.org/2000/svg" width="1885" height="1885">
<path d="M0 0 C101.31 0 202.62 0 307 0 C308.77268885 1.77268885 308.12406411 4.13831287 308.13180115 6.49958029 C308.12803784 7.69829496 308.12803784 7.69829496 308.1241985 8.92122608 C308.12611563 10.18977865 308.12611563 10.18977865 308.12807148 11.48395854 C308.13117075 14.36058088 308.12704914 17.23714985 308.12304783 20.11377048 C308.1237865 22.18873658 308.12496406 24.26370257 308.12654433 26.3386682 C308.129635 32.0952324 308.12642042 37.85177916 308.12226619 43.60834207 C308.11885029 49.85028786 308.12119928 56.09223177 308.12284368 62.33417791 C308.12492382 73.2920231 308.12329534 84.24986202 308.11920547 95.20770645 C308.11483431 106.97089254 308.11263208 118.73407603 308.11310768 130.49726295 C308.11313637 131.23897971 308.11316507 131.98069646 308.11319463 132.74488948 C308.11335099 136.5266019 308.11354294 140.30831431 308.11374746 144.09002672 C308.11515667 171.49467624 308.11171823 198.89932344 308.10573006 226.30397224 C308.09981209 253.45204746 308.09595587 280.60012169 308.09487724 307.74819756 C308.09482563 309.01182571 308.09482563 309.01182571 308.09477296 310.3009817 C308.09445978 317.99492677 308.09417208 325.68887184 308.09391499 333.38281692 C308.09327551 352.5110144 308.09231613 371.63921186 308.09113979 390.76740932 C308.09108648 391.63856516 308.09103316 392.50972099 308.09097823 393.40727549 C308.08835529 435.80708052 308.08204715 478.20688489 308.07543945 520.60668945 C308.07314784 535.32448323 308.0708725 550.04227701 308.06866455 564.7600708 C308.06845913 566.12922769 308.06845913 566.12922769 308.06824955 567.52604431 C308.06190809 609.94074291 308.05818073 652.35544163 308.05512976 694.77014058 C308.05493169 697.52297796 308.0547325 700.27581535 308.05453308 703.02865274 C308.05321332 721.27150742 308.05193867 739.51436211 308.05069422 757.7572168 C308.04821757 794.05746501 308.04547588 830.35771319 308.04255217 866.65796137 C308.04241293 868.38676117 308.04227388 870.11556097 308.04213501 871.84436078 C308.03785568 925.10531152 308.03237991 978.36626204 308.02565002 1031.62721252 C308.02537919 1033.77601127 308.02510836 1035.92481001 308.02483763 1038.07360875 C308.01728615 1097.71573926 308.00848021 1157.35786961 308 1217 C206.36 1217 104.72 1217 0 1217 C0 815.39 0 413.78 0 0 Z " fill="#FEFEFE" transform="translate(243,536)"/>
<path d="M0 0 C1.03793701 0.00149048 2.07587402 0.00298096 3.14526367 0.0045166 C21.13199616 0.05065055 38.78503079 0.91076851 56.625 3.3125 C57.70523437 3.45703613 58.78546875 3.60157227 59.8984375 3.75048828 C96.19606327 8.80862965 133.45003643 19.60372067 164.625 39.3125 C165.63046875 39.94542969 166.6359375 40.57835937 167.671875 41.23046875 C179.33691332 48.80065553 190.10222561 57.3006812 200.14550781 66.90039062 C201.1266484 67.8368456 202.11295247 68.76792231 203.10449219 69.69335938 C216.30670165 82.0339876 226.97864118 96.46979284 235.625 112.3125 C235.96869629 112.93946777 236.31239258 113.56643555 236.66650391 114.21240234 C249.20117965 137.39361168 256.53097557 163.19495984 259.625 189.3125 C259.7192627 190.08537354 259.81352539 190.85824707 259.91064453 191.65454102 C260.87412964 200.66459184 260.86850472 209.69855299 260.875 218.75 C260.87601212 220.01848282 260.87601212 220.01848282 260.87704468 221.31259155 C260.86116025 233.84748414 260.5632481 246.06497961 257.625 258.3125 C257.37556641 259.3651001 257.37556641 259.3651001 257.12109375 260.43896484 C249.42309981 291.60871254 233.27280527 318.86484834 211.03613281 341.85009766 C209.55933855 343.38054707 208.1047255 344.93051517 206.6484375 346.48046875 C193.45357854 360.31194906 178.10001717 370.76706536 161.625 380.3125 C160.9148877 380.72467773 160.20477539 381.13685547 159.47314453 381.56152344 C155.53855816 383.83842793 151.58953337 386.0880271 147.625 388.3125 C148.16165283 388.53276855 148.69830566 388.75303711 149.2512207 388.97998047 C173.21213141 398.87571703 194.90285843 410.31822221 214.625 427.3125 C215.42550781 427.99054688 216.22601562 428.66859375 217.05078125 429.3671875 C222.03927288 433.67657355 226.43647483 438.22778138 230.625 443.3125 C231.23859375 444.03824219 231.8521875 444.76398438 232.484375 445.51171875 C257.96519168 476.34350693 272.51609108 516.26016518 272.86328125 556.3046875 C272.8730751 557.24018936 272.88286896 558.17569122 272.89295959 559.13954163 C273.06229414 579.51184715 273.03240696 599.32152171 268.625 619.3125 C268.41069336 620.30636719 268.19638672 621.30023437 267.97558594 622.32421875 C260.34048193 656.68774364 244.41771724 687.04073259 220.74609375 712.96875 C218.80668497 715.11174312 216.93170701 717.29594638 215.0625 719.5 C211.55874693 723.50771755 207.70288522 726.90254425 203.625 730.3125 C202.34882812 731.42044922 202.34882812 731.42044922 201.046875 732.55078125 C150.56714265 775.78956839 82.16038345 796.27492956 16.3125 796.515625 C15.06412354 796.52132507 13.81574707 796.52702515 12.52954102 796.53289795 C9.89405143 796.54229458 7.25855037 796.54886053 4.62304688 796.55273438 C0.69118249 796.56233834 -3.24013509 796.59337213 -7.171875 796.625 C-29.66252133 796.71995128 -51.92366637 795.07420397 -74 790.625 C-75.27721924 790.37153809 -76.55443848 790.11807617 -77.87036133 789.85693359 C-103.54553185 784.62043639 -128.26841492 775.63406458 -151.375 763.3125 C-152.02388184 762.97138184 -152.67276367 762.63026367 -153.34130859 762.27880859 C-173.8409185 751.44092077 -191.58387256 737.201576 -208.375 721.3125 C-209.3959375 720.35537109 -209.3959375 720.35537109 -210.4375 719.37890625 C-244.00325634 686.97862756 -260.3285293 641.73073628 -265.375 596.3125 C-265.375 588.3925 -265.375 580.4725 -265.375 572.3125 C-214.225 572.3125 -163.075 572.3125 -110.375 572.3125 C-109.715 578.2525 -109.055 584.1925 -108.375 590.3125 C-106.26474562 599.55395883 -103.77130836 607.92072316 -99.375 616.3125 C-98.74851562 617.52099609 -98.74851562 617.52099609 -98.109375 618.75390625 C-84.09163256 643.84888768 -58.98297414 658.79597199 -32 666.5625 C1.55128923 674.91551807 39.41074652 671.38131731 69.625 654.3125 C70.62144531 653.75691406 71.61789062 653.20132813 72.64453125 652.62890625 C93.24830418 640.33738506 107.6636566 619.44030449 113.625 596.3125 C118.58080916 575.33575605 117.95539397 553.34718846 113.625 532.3125 C113.42414795 531.30703125 113.42414795 531.30703125 113.21923828 530.28125 C110.07114752 515.13988743 103.37389295 501.27886655 93.625 489.3125 C92.86703125 488.29349609 92.86703125 488.29349609 92.09375 487.25390625 C80.44286825 472.4822526 61.88461214 464.20406121 44.3125 459 C43.54470215 458.76949951 42.7769043 458.53899902 41.98583984 458.30151367 C24.64667142 453.52174493 7.08281156 452.86173107 -10.7890625 452.8359375 C-13.06498109 452.82158811 -15.34089116 452.80582422 -17.61679077 452.78872681 C-23.53737719 452.74732912 -29.4579106 452.72202136 -35.37860107 452.70123291 C-44.91557959 452.6650672 -54.45242827 452.60450975 -63.98926926 452.54274368 C-67.31198845 452.52366473 -70.63467225 452.51193803 -73.95742798 452.50131226 C-75.97503745 452.49110964 -77.99264615 452.48075254 -80.01025391 452.47021484 C-80.93476852 452.46917252 -81.85928314 452.46813019 -82.81181335 452.46705627 C-84.07256935 452.45887627 -84.07256935 452.45887627 -85.35879517 452.45053101 C-86.09053263 452.44797491 -86.82227009 452.44541882 -87.57618141 452.44278526 C-89.375 452.3125 -89.375 452.3125 -91.375 451.3125 C-91.375 411.3825 -91.375 371.4525 -91.375 330.3125 C-48.875 329.9375 -48.875 329.9375 -35.61523438 329.83447266 C25.74023365 329.87110473 25.74023365 329.87110473 77.7734375 300.31640625 C97.91310624 279.73891863 105.05980384 250.34879725 104.85742188 222.38354492 C104.39130144 199.40613799 98.88047003 177.05454443 83.625 159.3125 C82.85027344 158.34054687 82.07554687 157.36859375 81.27734375 156.3671875 C65.46644857 137.44400491 38.79995009 129.94988981 15.28320312 127.53955078 C-16.42439891 124.83124164 -47.4471534 132.03591341 -72.375 152.3125 C-73.11492187 152.88742187 -73.85484375 153.46234375 -74.6171875 154.0546875 C-88.60518773 165.43014294 -96.41038011 182.85949583 -99.375 200.3125 C-99.705 204.6025 -100.035 208.8925 -100.375 213.3125 C-151.855 213.3125 -203.335 213.3125 -256.375 213.3125 C-256.375 204.36011321 -256.28181629 195.98753792 -255.1875 187.1875 C-255.05512939 186.11564453 -254.92275879 185.04378906 -254.78637695 183.93945312 C-249.76920187 145.96555073 -233.16026376 110.61184967 -207.375 82.3125 C-206.35270706 81.16941169 -205.33057671 80.02617796 -204.30859375 78.8828125 C-198.9836234 72.97339418 -193.58510135 67.30450792 -187.375 62.3125 C-186.36050781 61.48363281 -185.34601563 60.65476562 -184.30078125 59.80078125 C-132.18561205 17.69858375 -66.26086989 -0.23765686 0 0 Z " fill="#FEFEFE" transform="translate(858.375,295.6875)"/>
<path d="M0 0 C1.01890823 -0.00570007 2.03781647 -0.01140015 3.08760071 -0.01727295 C5.238159 -0.02666766 7.38873132 -0.03323476 9.53930664 -0.03710938 C12.74718171 -0.04671451 15.95438683 -0.07774991 19.16210938 -0.109375 C63.70478454 -0.33827929 108.74432888 10.69666107 143.11328125 40.203125 C144.01820313 40.97398438 144.923125 41.74484375 145.85546875 42.5390625 C152.36059026 48.25131601 157.87428579 54.32178246 163.11328125 61.203125 C163.88027344 62.16992188 164.64726563 63.13671875 165.4375 64.1328125 C203.85216246 113.9235244 208.65335264 181.36080051 208.46147811 241.78495026 C208.44831537 247.00328453 208.45292124 252.22161043 208.45518494 257.43995667 C208.45674511 266.44456059 208.44746889 275.44909845 208.43047142 284.45368576 C208.40591328 297.47221079 208.39825912 310.49070444 208.39450745 323.50925012 C208.38796908 344.63964832 208.36807953 365.77001143 208.33959961 386.90039062 C208.3119909 407.40592272 208.29079082 427.91144522 208.27807617 448.41699219 C208.277288 449.68455759 208.27649983 450.952123 208.27568778 452.25809948 C208.27177218 458.61817881 208.26798117 464.97825821 208.26425207 471.33833766 C208.23323772 523.95996461 208.17797912 576.58152656 208.11328125 629.203125 C153.33328125 629.203125 98.55328125 629.203125 42.11328125 629.203125 C42.09346191 616.96814941 42.07364258 604.73317383 42.05322266 592.12744141 C41.98836206 552.94298223 41.91382594 513.75854677 41.83322964 474.57411692 C41.82071135 468.48365622 41.80827848 462.39319536 41.79589844 456.30273438 C41.79219945 454.48404644 41.79219945 454.48404644 41.78842573 452.62861733 C41.74874387 433.01811044 41.71597632 413.40759781 41.68578143 393.79707427 C41.65462495 373.66240923 41.61599768 353.52776843 41.57049119 333.39313066 C41.54266394 320.97734779 41.52060601 308.56158257 41.50601874 296.14577697 C41.49544518 287.62217953 41.47758966 279.09861635 41.45411421 270.57504477 C41.44079882 265.66355898 41.43059199 260.75212102 41.42906761 255.84061623 C41.4275969 251.33199397 41.41685303 246.82348658 41.39914684 242.31489973 C41.39435024 240.69548501 41.39277571 239.07605632 41.39500244 237.45663603 C41.42435957 211.8829479 38.72809785 183.83707651 22.11328125 163.203125 C20.953125 161.72005859 20.953125 161.72005859 19.76953125 160.20703125 C4.93370569 142.56208834 -20.52128764 138.64408697 -42.09960938 136.70996094 C-72.58796914 134.27677707 -104.91120619 140.08081981 -128.88671875 160.203125 C-129.72203125 160.90050781 -130.55734375 161.59789062 -131.41796875 162.31640625 C-142.41593152 171.87173501 -157.51111964 185.05367267 -158.90996012 200.49710103 C-159.08837021 204.4695073 -159.06256245 208.42598208 -159.00697327 212.40097046 C-159.01504392 214.20736251 -159.02706212 216.01374044 -159.04265016 217.82008326 C-159.07390681 222.74870891 -159.04966842 227.67569404 -159.01585233 232.60424423 C-158.98919852 237.93199942 -159.01473764 243.25954323 -159.03378296 248.58729553 C-159.05966729 257.80622536 -159.05283799 267.02465911 -159.02348518 276.24357224 C-158.98109458 289.57230004 -158.98851296 302.90063845 -159.00790053 316.22940262 C-159.03801477 337.85678681 -159.0281157 359.48395884 -158.99291992 381.11132812 C-158.95882628 402.11429083 -158.94366033 423.11712727 -158.95385742 444.12011719 C-158.95447991 445.41578213 -158.95510239 446.71144708 -158.95574374 448.0463746 C-158.95898317 454.54665691 -158.96259374 461.04693894 -158.96638882 467.54722095 C-158.99736912 521.43266021 -158.95595978 575.31770302 -158.88671875 629.203125 C-213.66671875 629.203125 -268.44671875 629.203125 -324.88671875 629.203125 C-324.88671875 425.263125 -324.88671875 221.323125 -324.88671875 11.203125 C-273.40671875 11.203125 -221.92671875 11.203125 -168.88671875 11.203125 C-167.05046711 13.03937664 -167.4947722 15.99008414 -167.31420898 18.46704102 C-167.2652951 19.12067627 -167.21638123 19.77431152 -167.16598511 20.44775391 C-167.00473176 22.61721581 -166.85001076 24.78709287 -166.6953125 26.95703125 C-166.58504084 28.45778806 -166.4743639 29.95851513 -166.36329651 31.45921326 C-166.07155307 35.41600181 -165.78533818 39.37317187 -165.50024414 43.33044434 C-165.20855684 47.3657217 -164.91168229 51.40061695 -164.61523438 55.43554688 C-164.03396369 63.3577067 -163.45852866 71.28027672 -162.88671875 79.203125 C-161.45359734 77.61793725 -160.02150577 76.03181842 -158.58984375 74.4453125 C-157.79223633 73.56214355 -156.99462891 72.67897461 -156.17285156 71.76904297 C-154.28633153 69.65164383 -152.44807411 67.50950252 -150.63671875 65.328125 C-114.02870431 23.61006735 -54.79636617 0.24563878 0 0 Z " fill="#FEFEFE" transform="translate(1486.88671875,1125.796875)"/>
<path d="M0 0 C3.32284545 0.01611373 6.64447535 0.00000592 9.96728516 -0.01904297 C79.24712541 -0.08808038 143.38540675 23.51570991 192.82275391 72.39111328 C269.99395291 150.32208499 266.82275391 262.99306487 266.82275391 364.39111328 C141.42275391 364.39111328 16.02275391 364.39111328 -113.17724609 364.39111328 C-103.98073087 406.69508333 -89.05679756 443.26469889 -51.87255859 468.09814453 C-38.67139275 476.42943433 -25.25313939 482.38598001 -10.17724609 486.39111328 C-9.04673828 486.70693359 -7.91623047 487.02275391 -6.75146484 487.34814453 C37.61651138 498.34533522 88.84319277 489.38697805 128.04199219 466.47705078 C136.94726612 461.0464697 144.90324147 454.70324266 152.49462891 447.56689453 C154.30843705 445.87177517 156.12505101 444.29864793 158.07275391 442.76611328 C161.71620555 439.61949595 164.72450922 436.06464725 167.82275391 432.39111328 C168.96790849 431.05719695 170.11369335 429.72382131 171.26025391 428.39111328 C172.10587891 427.40111328 172.95150391 426.41111328 173.82275391 425.39111328 C178.24490113 425.79500963 180.39503761 428.80602895 183.13525391 431.95361328 C183.86591064 432.77224854 183.86591064 432.77224854 184.61132812 433.60742188 C186.02407719 435.19436472 187.42509504 436.79088003 188.82275391 438.39111328 C189.46857422 439.12458984 190.11439453 439.85806641 190.77978516 440.61376953 C191.88587003 441.87527616 192.98877638 443.13957728 194.08837891 444.40673828 C197.61774856 448.4448459 201.22846022 452.41085517 204.82275391 456.39111328 C209.59309328 461.67370386 214.34169797 466.97045463 219.01806641 472.33642578 C222.57913564 476.39080331 226.2062343 480.38624258 229.82275391 484.39111328 C239.34664877 494.93770826 239.34664877 494.93770826 243.97900391 500.31298828 C245.38299248 501.89544998 246.82837692 503.44128921 248.29150391 504.96923828 C249.54447266 506.29181641 249.54447266 506.29181641 250.82275391 507.64111328 C251.60650391 508.45064453 252.39025391 509.26017578 253.19775391 510.09423828 C254.82275391 512.39111328 254.82275391 512.39111328 254.84619141 514.31298828 C253.38726068 517.27539725 251.48404736 519.81121834 249.44775391 522.39111328 C248.77619263 523.24987061 248.77619263 523.24987061 248.09106445 524.12597656 C243.30505506 530.1652468 238.15141192 535.83142957 232.82275391 541.39111328 C232.26990723 541.97650879 231.71706055 542.5619043 231.14746094 543.16503906 C213.42988999 561.85680581 192.48188708 576.30587318 169.82275391 588.39111328 C169.18257324 588.73384277 168.54239258 589.07657227 167.8828125 589.4296875 C140.36734125 604.02217784 110.22021104 613.43909096 79.57275391 618.64111328 C78.68894043 618.79209473 77.80512695 618.94307617 76.89453125 619.09863281 C73.87552546 619.58069548 70.85465303 619.99756617 67.82275391 620.39111328 C67.1553418 620.47831635 66.48792969 620.56551941 65.80029297 620.65536499 C50.65306537 622.5691842 35.5742482 622.75119826 20.32275391 622.70361328 C18.46108078 622.70038055 18.46108078 622.70038055 16.5617981 622.69708252 C-1.18976365 622.6475695 -18.63695047 622.37435733 -36.17724609 619.39111328 C-37.39412109 619.19243652 -38.61099609 618.99375977 -39.86474609 618.7890625 C-72.30230343 613.37604512 -103.1044942 603.86382694 -132.17724609 588.39111328 C-132.88800293 588.01905762 -133.59875977 587.64700195 -134.33105469 587.26367188 C-158.22210842 574.70950566 -178.79092925 558.04633081 -198.17724609 539.39111328 C-199.36447266 538.26576172 -199.36447266 538.26576172 -200.57568359 537.11767578 C-205.03766636 532.79678338 -208.95806199 528.13316214 -212.83740234 523.28564453 C-214.37616587 521.382099 -215.94606466 519.5032355 -217.54833984 517.65283203 C-248.60334459 481.72840254 -265.85410603 435.74901317 -273.98974609 389.51611328 C-274.18463623 388.41388428 -274.37952637 387.31165527 -274.58032227 386.17602539 C-275.17561769 382.58719945 -275.69391735 378.99677298 -276.17724609 375.39111328 C-276.27013916 374.70352936 -276.36303223 374.01594543 -276.45874023 373.30752563 C-278.61090824 356.65703906 -278.55224243 339.92597493 -278.54785156 323.16821289 C-278.54769044 319.96843509 -278.5613797 316.76923863 -278.58886719 313.56958008 C-278.73781454 295.93235311 -278.32598236 278.54253498 -276.32958984 261.00439453 C-276.24662533 260.274568 -276.16366081 259.54474148 -276.07818222 258.792799 C-273.3668175 235.49234607 -268.38906632 212.71702493 -261.17724609 190.39111328 C-260.89768066 189.5180957 -260.61811523 188.64507813 -260.33007812 187.74560547 C-248.09566863 149.99248894 -228.33750251 116.12040323 -202.17724609 86.39111328 C-201.74089844 85.89160156 -201.30455078 85.39208984 -200.85498047 84.87744141 C-150.55651948 27.574454 -75.22670257 -0.431257 0 0 Z M-75.17724609 163.39111328 C-90.39871359 180.55963775 -99.73876213 201.05677431 -105.98974609 222.95361328 C-106.2677002 223.92089355 -106.5456543 224.88817383 -106.83203125 225.88476562 C-109.32490352 235.04451603 -110.59284577 243.88471136 -112.17724609 253.39111328 C-39.57724609 253.39111328 33.02275391 253.39111328 107.82275391 253.39111328 C107.82275391 220.43199154 105.03881752 187.66208271 81.82275391 162.39111328 C81.08669922 161.56353516 80.35064453 160.73595703 79.59228516 159.88330078 C61.11507063 140.17025298 34.44926958 132.15667292 8.05712891 131.10205078 C-23.80244358 130.37083876 -53.10346522 139.58052517 -75.17724609 163.39111328 Z " fill="#FEFEFE" transform="translate(871.17724609375,1127.60888671875)"/>
<path d="M0 0 C49.5 0 99 0 150 0 C167.02603167 55.61837012 167.02603167 55.61837012 171.4810791 70.79403687 C173.0861351 76.25920422 174.70178032 81.72124759 176.31640625 87.18359375 C176.67342621 88.39177261 177.03044617 89.59995148 177.39828491 90.84474182 C182.80898499 109.13752164 188.28428064 127.4111034 193.75 145.6875 C194.31564955 147.57908952 194.88129286 149.47068091 195.44692993 151.36227417 C198.40077765 161.24048009 198.40077765 161.24048009 201.3548336 171.11862373 C205.0684962 183.53627873 208.77901541 195.95486486 212.484375 208.375 C212.69779541 209.09035416 212.91121582 209.80570831 213.13110352 210.54273987 C214.18013821 214.05899775 215.22911585 217.57527266 216.27807617 221.09155273 C225.81826131 253.07118783 235.39973347 285.03835188 245 317 C246.70853016 313.83721134 247.7921991 310.68773625 248.8215332 307.24682617 C249.17489746 306.07192627 249.52826172 304.89702637 249.89233398 303.68652344 C250.27857176 302.38869826 250.66471782 301.0908458 251.05078125 299.79296875 C251.46031898 298.42577483 251.87015724 297.0586709 252.28027344 295.69165039 C253.39487437 291.97266504 254.50468013 288.25226423 255.61349869 284.53155136 C256.5544103 281.37627094 257.49799988 278.22179387 258.44153118 275.06729603 C267.09764177 246.12467335 275.66656402 217.15621414 284.22022629 188.18318176 C289.52924899 170.20058678 294.85293732 152.22234293 300.17971039 134.24499893 C300.93432728 131.69820776 301.68887797 129.15139698 302.44342041 126.60458374 C310.70551185 98.7185648 318.9867207 70.83824507 327.28160286 42.9619627 C328.16256894 40.0012638 329.04336409 37.04051407 329.92415619 34.07976341 C330.51321091 32.10001294 331.10256903 30.120353 331.69195557 28.14070129 C334.48100863 18.7661008 337.24017742 9.38339678 340 0 C389.83 0 439.66 0 491 0 C489.87493197 6.75040817 489.87493197 6.75040817 488.74755859 10.0378418 C488.4951239 10.78126831 488.24268921 11.52469482 487.98260498 12.29064941 C487.70732971 13.08547729 487.43205444 13.88030518 487.1484375 14.69921875 C486.85801575 15.54955688 486.56759399 16.39989502 486.26837158 17.27600098 C485.30864844 20.08148179 484.34197219 22.88451027 483.375 25.6875 C482.69422314 27.67153633 482.01372645 29.65566881 481.33349609 31.63989258 C475.57690251 48.40979186 469.7375725 65.15089268 463.8828125 81.88671875 C459.73269972 93.7500131 455.61577731 105.62475896 451.5 117.5 C445.87910833 133.71501263 440.24081201 149.92380883 434.58300781 166.12597656 C429.53699082 180.57764052 424.51384947 195.03714656 419.5 209.5 C413.8787687 225.71489534 408.2408123 241.923808 402.58300781 258.12597656 C397.53699082 272.57764052 392.51384947 287.03714656 387.5 301.5 C381.8787687 317.71489534 376.2408123 333.923808 370.58300781 350.12597656 C365.53699082 364.57764052 360.51384947 379.03714656 355.5 393.5 C349.8787687 409.71489534 344.2408123 425.923808 338.58300781 442.12597656 C333.53699082 456.57764052 328.51384947 471.03714656 323.5 485.5 C319.40396653 497.31533911 315.307194 509.13038551 311.1875 520.9375 C310.72789383 522.25491936 310.72789383 522.25491936 310.25900269 523.59895325 C308.73128101 527.97658285 307.20139063 532.35344075 305.66845703 536.72924805 C302.31468781 546.3110888 299.00503571 555.90632682 295.7421875 565.51953125 C288.05754992 588.10963974 280.30495787 610.44891408 270 632 C269.52900879 632.98758301 269.05801758 633.97516602 268.57275391 634.99267578 C252.59024873 668.0135035 228.1044665 697.26168936 195 714 C194.34370605 714.33483398 193.68741211 714.66966797 193.01123047 715.01464844 C180.5579553 721.24860287 167.61161487 725.14342868 154 728 C153.08895508 728.19650146 152.17791016 728.39300293 151.23925781 728.59545898 C141.08257173 730.4782802 130.84749179 730.33709302 120.55517578 730.31567383 C117.40231274 730.31252726 114.25040307 730.33599399 111.09765625 730.36132812 C90.8652683 730.42943527 74.00792328 727.00198082 54 722 C54 686.69 54 651.38 54 615 C67.53 614.67 81.06 614.34 95 614 C117.70562015 610.21572998 137.29722788 606.01953071 151.30859375 586.83984375 C160.17490115 573.76973134 165.96900487 559.14026944 171.56445312 544.44482422 C172.51197872 541.96869652 173.48242318 539.50227567 174.453125 537.03515625 C175.06391909 535.44064704 175.67334602 533.8456133 176.28125 532.25 C176.71540222 531.16078247 176.71540222 531.16078247 177.1583252 530.04956055 C180.45173623 521.21051678 177.11037609 513.83960353 174.125 505.31640625 C173.72893051 504.170047 173.33286102 503.02368774 172.92478943 501.84259033 C171.84741373 498.72924601 170.76429394 495.61797782 169.67829514 492.50763321 C168.76527037 489.88937061 167.85708057 487.2694417 166.94886303 484.64950848 C160.8456496 467.04571679 154.65365337 449.47356433 148.40829468 431.91970825 C142.61789895 415.64445838 136.94061643 399.33204766 131.3125 383 C130.91026215 381.83276398 130.50802429 380.66552795 130.09359741 379.46292114 C129.69428009 378.30412445 129.29496277 377.14532776 128.88354492 375.95141602 C124.20409703 362.37302903 119.50294675 348.8028422 114.75 335.25 C114.32868805 334.04857361 114.32868805 334.04857361 113.89886475 332.82287598 C112.77427258 329.61629591 111.64957502 326.40975288 110.52459717 323.20330811 C107.62351631 314.93209199 104.73835712 306.65534092 101.85360718 298.37841797 C95.78435558 280.96502974 89.6977563 263.55775251 83.60379791 246.15299606 C76.08109909 224.66761245 68.56622277 203.17951872 61.0625 181.6875 C60.83523602 181.03657883 60.60797203 180.38565765 60.37382126 179.7150116 C58.29927451 173.77311521 56.22484906 167.83117649 54.15055847 161.88919067 C50.93293414 152.67203555 47.71473574 143.45508105 44.49609375 134.23828125 C44.26900286 133.58798761 44.04191196 132.93769398 43.80793953 132.26769447 C41.7524592 126.38166666 39.69693626 120.49565373 37.64138794 114.60964966 C36.28174083 110.71633515 34.922113 106.82301392 33.5625 102.9296875 C33.2250945 101.96351281 33.2250945 101.96351281 32.88087273 100.97781944 C29.7416436 91.98842502 26.60311976 82.9987846 23.46508789 74.00897217 C21.70474486 68.96596353 19.94421252 63.92302098 18.18363953 58.88009262 C16.75812803 54.79684771 15.3328352 50.7135266 13.90782166 46.63010788 C13.24078225 44.71900188 12.57339978 42.80801591 11.90600586 40.89703369 C11.06562845 38.48909696 10.22655381 36.08070508 9.38891602 33.67181396 C7.64536239 28.6648858 5.88944011 23.66578069 4.046875 18.69433594 C3.75989746 17.91222748 3.47291992 17.13011902 3.17724609 16.3243103 C2.66907281 14.94602946 2.15221557 13.57089348 1.62353516 12.2003479 C-0.04253927 7.66337984 0 5.20331422 0 0 Z " fill="#FEFEFE" transform="translate(1128,360)"/>
<path d="M0 0 C1.33783539 -0.00855011 1.33783539 -0.00855011 2.70269775 -0.01727295 C4.58515257 -0.02666574 6.4676234 -0.03323398 8.35009766 -0.03710938 C11.15428583 -0.04670783 13.95770527 -0.0777415 16.76171875 -0.109375 C33.46436379 -0.20810994 49.92050227 1.4965754 66.078125 5.890625 C67.02631104 6.14481201 67.97449707 6.39899902 68.95141602 6.66088867 C109.56234957 18.0064133 143.33377894 45.77014154 164.08862305 82.33569336 C176.4406324 105.11047161 183.51632306 131.41491661 183.65625 157.34765625 C183.66195007 158.19752609 183.66765015 159.04739594 183.67352295 159.92301941 C183.68291068 161.71551292 183.68948192 163.50802321 183.69335938 165.30053711 C183.70296402 167.97086983 183.73400513 170.64039733 183.765625 173.31054688 C184.04853652 219.16126836 166.89866471 259.99749364 135.140625 292.828125 C125.31298927 302.43208766 114.43220486 310.4709654 102.453125 317.203125 C101.87965332 317.52877441 101.30618164 317.85442383 100.71533203 318.18994141 C82.1155847 328.59869496 61.49170864 334.37194179 40.453125 337.203125 C39.34457153 337.35454956 39.34457153 337.35454956 38.21362305 337.5090332 C0.55203311 341.95976694 -38.45319624 336.97657999 -72.546875 320.203125 C-73.56007813 319.71070313 -74.57328125 319.21828125 -75.6171875 318.7109375 C-111.93440463 299.96998289 -139.01230306 265.1854776 -151.3515625 226.57421875 C-155.67946719 211.4554532 -158.66170365 195.83639278 -158.75 180.09375 C-158.75701431 179.25286835 -158.76402863 178.41198669 -158.77125549 177.54562378 C-158.78865817 174.84806908 -158.79510724 172.15073377 -158.796875 169.453125 C-158.79754974 168.53239197 -158.79822449 167.61165894 -158.79891968 166.6630249 C-158.78333745 153.3004619 -158.48233167 140.2942216 -155.546875 127.203125 C-155.38058594 126.42533691 -155.21429688 125.64754883 -155.04296875 124.84619141 C-148.48300139 94.93152541 -134.12896707 68.51015618 -112.87646484 46.58398438 C-111.74358954 45.40742493 -110.63649723 44.20612877 -109.53515625 43 C-82.62791227 14.28337518 -38.53245371 0.19771766 0 0 Z " fill="#FEFEFE" transform="translate(384.546875,53.796875)"/>
</svg>
